# xmcd CD database file
#
# Track frame offsets:
#	150
#	9840
#	27805
#	41495
#	77290
#	92395
#	105702
#	117497
#	151567
#	168502
#	186902
#	202687
#	216527
#	229222
#
# Disc length: 3222 seconds
#
# Revision: 0
# Processed by: cddbd v1.5.2PL0 Copyright (c) Steve Scherf et al.
# Submitted via: CDex 1.77
#
DISCID=9e0c940e
DTITLE=Various Artist - Red Hot Jazz
DYEAR=1900
DGENRE=Jazz
TTITLE0=Charlie Byrd - A Taste Of Honey
TTITLE1=Tony Bennett - Fly Me To The Moon
TTITLE2=Four Queens Of Jazz - I'll Never Be The Same
TTITLE3=Miles Davis - Bye Bye Blackbird
TTITLE4=Louis Armstrong - Mack The Knife
TTITLE5=Benny Goodman - Wolverine Blues
TTITLE6=Sarah Vaughan - Nice Work If You Can Get It
TTITLE7=Thelonious Monk - Blue Monk
TTITLE8=Duke Ellington - Mood Indigo
TTITLE9=Billie Holiday - It's Easy To Remember
TTITLE10=Andre Previn - I Could Have Danced All Night
TTITLE11=Count Basie - One O'Clock Jump
TTITLE12=Mahalia Jackson - He's Got The Whole World In His Hands
TTITLE13=Errol Garner - Laura
EXTD=
EXTT0=
EXTT1=
EXTT2=
EXTT3=
EXTT4=
EXTT5=
EXTT6=
EXTT7=
EXTT8=
EXTT9=
EXTT10=
EXTT11=
EXTT12=
EXTT13=
PLAYORDER=
